<svg version="1.1" id="Layer_1" xmlns="http://www.w3.org/2000/svg" xmlns:xlink="http://www.w3.org/1999/xlink" x="0px" y="0px"
	 width="100%" viewBox="0 0 64 68" enable-background="new 0 0 64 68" xml:space="preserve">
<path fill="#EA7126" opacity="1.000000" stroke="none" 
	d="
M40.000038,69.000000 
	C26.691036,69.000000 13.882052,69.000000 1.036534,69.000000 
	C1.036534,46.400745 1.036534,23.801418 1.036534,1.101046 
	C22.225065,1.101046 43.450771,1.101046 64.838242,1.101046 
	C64.838242,23.665726 64.838242,46.332767 64.838242,69.000000 
	C56.802349,69.000000 48.651203,69.000000 40.000038,69.000000 
M34.333973,15.348445 
	C36.148773,15.193495 37.966721,14.883487 39.777634,14.920203 
	C42.444641,14.974277 46.032459,16.412098 47.537983,15.185734 
	C49.448708,13.629303 49.670769,9.997082 50.607285,7.255265 
	C50.655567,7.113910 50.575180,6.928606 50.554699,6.763763 
	C42.998283,2.515130 29.665697,3.703469 23.102791,9.210564 
	C15.362615,15.705535 14.795637,26.964535 21.417439,34.518661 
	C26.020107,39.769367 32.532242,38.224773 38.127110,40.881523 
	C39.633415,36.870354 40.875324,33.563251 42.190910,30.059958 
	C39.163464,29.241480 36.542233,29.006458 34.441895,27.836391 
	C32.185459,26.579357 29.376699,24.781322 28.675610,22.615194 
	C27.555611,19.154787 30.277258,16.863287 34.333973,15.348445 
M16.075432,50.102585 
	C17.285572,57.536968 21.780369,62.113705 29.274843,64.984970 
	C30.448891,61.801624 32.858280,58.558163 32.434834,55.740414 
	C31.519100,49.646889 23.131796,45.310162 17.225431,47.059296 
	C16.646940,47.230610 16.389301,48.485367 16.075432,50.102585 
z"/>
<path fill="#FEFBF8" opacity="1.000000" stroke="none" 
	d="
M33.939232,15.499933 
	C30.277258,16.863287 27.555611,19.154787 28.675610,22.615194 
	C29.376699,24.781322 32.185459,26.579357 34.441895,27.836391 
	C36.542233,29.006458 39.163464,29.241480 42.190910,30.059958 
	C40.875324,33.563251 39.633415,36.870354 38.127110,40.881523 
	C32.532242,38.224773 26.020107,39.769367 21.417439,34.518661 
	C14.795637,26.964535 15.362615,15.705535 23.102791,9.210564 
	C29.665697,3.703469 42.998283,2.515130 50.554699,6.763763 
	C50.575180,6.928606 50.655567,7.113910 50.607285,7.255265 
	C49.670769,9.997082 49.448708,13.629303 47.537983,15.185734 
	C46.032459,16.412098 42.444641,14.974277 39.777634,14.920203 
	C37.966721,14.883487 36.148773,15.193495 33.939232,15.499933 
z"/>
<path fill="#FEFAF7" opacity="1.000000" stroke="none" 
	d="
M16.029083,49.669907 
	C16.389301,48.485367 16.646940,47.230610 17.225431,47.059296 
	C23.131796,45.310162 31.519100,49.646889 32.434834,55.740414 
	C32.858280,58.558163 30.448891,61.801624 29.274843,64.984970 
	C21.780369,62.113705 17.285572,57.536968 16.029083,49.669907 
z"/>
</svg>